<svg width="28" height="28" viewBox="0 0 28 28" fill="none" xmlns="http://www.w3.org/2000/svg">
<path d="M18.4217 21.8282C18.5311 21.7197 18.6179 21.5907 18.6771 21.4485C18.7364 21.3063 18.7668 21.1539 18.7668 20.9998C18.7668 20.8458 18.7364 20.6933 18.6771 20.5512C18.6179 20.409 18.5311 20.28 18.4217 20.1715L13.0784 14.8282C12.9691 14.7197 12.8823 14.5907 12.8231 14.4485C12.7638 14.3063 12.7333 14.1539 12.7333 13.9998C12.7333 13.8458 12.7638 13.6933 12.8231 13.5512C12.8823 13.409 12.9691 13.28 13.0784 13.1715L18.4217 7.82817C18.5311 7.71971 18.6179 7.59068 18.6771 7.44851C18.7364 7.30634 18.7668 7.15385 18.7668 6.99984C18.7668 6.84582 18.7364 6.69333 18.6771 6.55116C18.6179 6.40899 18.5311 6.27996 18.4217 6.1715C18.2032 5.95421 17.9075 5.83224 17.5993 5.83224C17.291 5.83224 16.9953 5.95421 16.7768 6.1715L11.4218 11.5265C10.7663 12.1828 10.3982 13.0723 10.3982 13.9998C10.3982 14.9273 10.7663 15.8169 11.4218 16.4732L16.7768 21.8282C16.9953 22.0455 17.291 22.1674 17.5992 22.1674C17.9075 22.1674 18.2032 22.0455 18.4217 21.8282Z" fill="#374957"/>
</svg>
